<svg width="200" height="200" viewBox="0 0 200 200" fill="none" xmlns="http://www.w3.org/2000/svg">
<circle cx="50.5" cy="149.5" r="40.5" fill="#336AB9"/>
<rect x="1" y="1" width="99" height="99" stroke="#555555" stroke-width="2"/>
<rect x="100" y="1" width="99" height="99" stroke="#555555" stroke-width="2"/>
<rect x="1" y="100" width="99" height="99" stroke="#555555" stroke-width="2"/>
<rect x="100" y="100" width="99" height="99" stroke="#555555" stroke-width="2"/>
<rect x="20" y="10" width="20" height="81" rx="1" fill="#3B924D"/>
<rect x="20" y="71" width="61" height="20" rx="1" fill="#3B924D"/>
<path d="M119 131.414C119 130.523 120.077 130.077 120.707 130.707L178.293 188.293C178.923 188.923 178.477 190 177.586 190H120C119.448 190 119 189.552 119 189V131.414Z" fill="#E2701B"/>
<path d="M177.586 109C178.477 109 178.923 110.077 178.293 110.707L120.707 168.293C120.077 168.923 119 168.477 119 167.586V110C119 109.448 119.448 109 120 109H177.586Z" fill="#E2701B"/>
<path d="M150.394 89.2111C150.026 89.9482 148.974 89.9482 148.606 89.2111L109.724 11.4472C109.391 10.7823 109.875 10 110.618 10L188.382 10C189.125 10 189.609 10.7823 189.276 11.4472L150.394 89.2111Z" fill="#495057"/>
</svg>
